# AST/ASF file generated using VICON BodyLanguage
# -----------------------------------------------
:version 1.10
:name VICON
:units
  mass 1.0
  length 0.45
  angle deg
:documentation
   .ast/.asf automatically generated from VICON data using
   VICON BodyBuilder and BodyLanguage model FoxedUp or BRILLIANT.MOD
:root
   order TX TY TZ RX RY RZ
   axis XYZ
   position 0 0 0  
   orientation 0 0 0 
:bonedata
  begin
     id 1 
     name lhipjoint
     direction 0.671379 -0.66392 0.329334 
     length 2.38647 
     axis 0 0 0  XYZ
  end
  begin
     id 2 
     name lfemur
     direction 0.34202 -0.939693 0  
     length 6.48179  
     axis 0 0 20  XYZ
    dof rx ry rz
    limits (-160.0 20.0)
           (-70.0 70.0)
           (-60.0 70.0)
  end
  begin
     id 3 
     name ltibia
     direction 0.34202 -0.939693 0   
     length 6.86524   
     axis 0 0 20   XYZ
    dof rx
    limits (-10.0 170.0)
  end
  begin
     id 4 
     name lfoot
     direction 0.204886 -0.562919 0.800715   
     length 1.73031   
     axis -90 7.62852e-016 20   XYZ
    dof rx rz
    limits (-45.0 90.0)
           (-70.0 20.0)
  end
  begin
     id 5 
     name ltoes
     direction 1.53548e-011 -4.21841e-011 1   
     length 0.828161   
     axis -90 7.62852e-016 20   XYZ
    dof rx
    limits (-90.0 20.0)
  end
  begin
     id 6 
     name rhipjoint
     direction -0.662732 -0.670855 0.332775   
     length 2.3618  
     axis 0 0 0  XYZ 
  end
  begin
     id 7 
     name rfemur
     direction -0.34202 -0.939693 0   
     length 6.3025   
     axis 0 0 -20   XYZ
    dof rx ry rz
    limits (-160.0 20.0)
           (-70.0 70.0)
           (-70.0 60.0)
  end
  begin
     id 8 
     name rtibia
     direction -0.34202 -0.939693 0   
     length 6.8732   
     axis 0 0 -20   XYZ
    dof rx
    limits (-10.0 170.0)
 end
 begin
     id 9 
     name rfoot
     direction -0.173856 -0.477665 0.861168   
     length 1.54784  
     axis -90 -7.62852e-016 -20   XYZ
    dof rx rz
    limits (-45.0 90.0)
           (-20.0 70.0)
  end
  begin
     id 10 
     name rtoes
     direction -1.53562e-011 -4.21802e-011 1   
     length 0.759618   
     axis -90 -7.62852e-016 -20   XYZ
    dof rx
    limits (-90.0 20.0)
  end
  begin
     id 11 
     name lowerback
     direction -0.0278357 0.999497 -0.0151789   
     length 1.97203   
     axis 0 0 0   XYZ
    dof rx ry rz
    limits (-20.0 45.0)
           (-30.0 30.0)
           (-30.0 30.0)
  end
  begin
     id 12 
     name upperback
     direction -0.00360622 0.997542 0.0699804   
     length 1.94709   
     axis 0 0 0   XYZ
    dof rx ry rz
    limits (-20.0 45.0)
           (-30.0 30.0)
           (-30.0 30.0)
  end
  begin
     id 13 
     name thorax
     direction 0.00907706 0.997048 0.0762461   
     length 1.95722   
     axis 0 0 0   XYZ
    dof rx ry rz
    limits (-20.0 45.0)
           (-30.0 30.0)
           (-30.0 30.0)
  end
  begin
     id 14 
     name lowerneck
     direction -0.0481835 0.99872 -0.0153927   
     length 1.63078   
     axis 0 0 0   XYZ
    dof rx ry rz
    limits (-20.0 45.0)
           (-30.0 30.0)
           (-30.0 30.0)
  end
  begin
     id 15 
     name upperneck
     direction 0.0859716 0.979226 -0.183644   
     length 1.62591   
     axis 0 0 0   XYZ
    dof rx ry rz
    limits (-20.0 45.0)
           (-30.0 30.0)
           (-30.0 30.0)
  end
  begin
     id 16
     name head
     direction 0.0324821 0.997629 -0.0606773  
     length 1.64811  
     axis 0 0 0   XYZ
    dof rx ry rz
    limits (-20.0 45.0)
           (-30.0 30.0)
           (-30.0 30.0)
  end
  begin
     id 17 
     name lclavicle
     direction 0.939609 0.311019 0.142835  
     length 3.70647  
     axis 0 0 0   XYZ
    dof ry rz
    limits (-20.0 10.0)
           (0.0 20.0)
  end
  begin
     id 18 
     name lhumerus
     direction 1 -4.48963e-011 -1.59838e-027   
     length 4.59207   
     axis 180 -30 -90   XYZ
    dof rx ry rz
    limits (-60.0 90.0)
           (-90.0 90.0)
           (-90.0 90.0)
  end
  begin
     id 19
     name lradius
     direction 1 -4.48957e-011 -1.3483e-026   
     length 2.98109   
     axis 180 -30 -90   XYZ
    dof rx
    limits (-10.0 170.0)
  end
  begin
     id 20
     name lwrist
     direction 1 -4.48954e-011 -3.11579e-026   
     length 1.49055   
     axis 2.00652e-014 90 90   XYZ
    dof ry
    limits (-180.0 0.0)
 end
  begin
     id 21 
     name lhand
     direction 1 -4.4911e-011 -6.23158e-026   
     length 0.480203   
     axis 3.97628e-014 90 90   XYZ
    dof rx rz
    limits (-90.0 90.0)
           (-45.0 45.0)
  end
  begin
     id 22 
     name lfingers
     direction 1 -4.48893e-011 -1.24632e-025   
     length 0.387152   
     axis 7.95256e-014 90 90   XYZ
    dof rx
    limits (0.0 90.0)
  end
  begin
     id 23
     name lthumb
     direction 0.707107 -6.35013e-011 0.707107   
     length 0.555875   
     axis -90 45 2.85299e-015   XYZ
    dof rx rz
    limits (-45.0 45.0)
           (-45.0 45.0)
  end
  begin
     id 24 
     name rclavicle
     direction -0.950396 0.30392 0.0661859   
     length 3.70894  
     axis 0 0 0   XYZ 
    dof ry rz
    limits (-10.0 20.0)
           (-20.0 0.0)
  end
  begin
     id 25 
     name rhumerus
     direction -1 -4.48957e-011 -2.96677e-027  
     length 4.76508   
     axis 180 30 90   XYZ
    dof rx ry rz
    limits (-90.0 60.0)
           (-90.0 90.0)
           (-90.0 90.0)
  end
  begin
     id 26 
     name rradius
     direction -1 -4.48974e-011 -1.44501e-026   
     length 2.78902   
     axis 180 30 90   XYZ
    dof rx
    limits (-10.0 170.0)
  end
  begin
     id 27 
     name rwrist
     direction -1 -4.48978e-011 -3.11579e-026   
     length 1.39451   
     axis 2.00652e-014 -90 -90   XYZ
    dof ry
    limits (-180.0 0.0)
  end
  begin
     id 28
     name rhand
     direction -1 -4.48956e-011 -6.23158e-026   
     length 0.721303   
     axis 3.97628e-014 -90 -90   XYZ
    dof rx rz
    limits (-90.0 90.0)
           (-45.0 45.0)
  end
  begin
     id 29
     name rfingers
     direction -1 -4.4899e-011 -1.24632e-025   
     length 0.581533   
     axis 7.95256e-014 -90 -90   XYZ
    dof rx
    limits (0.0 90.0)
  end
  begin
     id 30
     name rthumb
     direction -0.707107 -6.34911e-011 0.707107   
     length 0.834968   
     axis -90 -45 -2.85299e-015   XYZ
    dof rx rz
    limits (-45.0 45.0)
           (-45.0 45.0)
  end
:hierarchy
  begin
    root lhipjoint rhipjoint lowerback
    lhipjoint lfemur
    lfemur ltibia
    ltibia lfoot
    lfoot ltoes
    rhipjoint rfemur
    rfemur rtibia
    rtibia rfoot
    rfoot rtoes
    lowerback upperback
    upperback thorax
    thorax lowerneck lclavicle rclavicle
    lowerneck upperneck
    upperneck head
    lclavicle lhumerus
    lhumerus lradius
    lradius lwrist
    lwrist lhand lthumb
    lhand lfingers
    rclavicle rhumerus
    rhumerus rradius
    rradius rwrist
    rwrist rhand rthumb
    rhand rfingers
  end

#!OML:ASF I:\salsa\salsa 7_09\Patient 1\Session 1\dancerfemale.ASF
:FULLY-SPECIFIED
:DEGREES
857
root 6.57561 15.5445 1.16131 353.838 -476.557 -709.813
lowerback 0.804245 2.34275 3.42204
upperback -10.5122 2.73569 -1.64097
thorax -11.4599 0.687047 -3.92403
lowerneck 7.1785 3.54449 -1.98384
upperneck 4.30686 4.2426 9.50698
head -0.151245 1.94515 3.29788
rclavicle 6.36111e-015 2.38542e-014
rhumerus 38.9384 -5.99221 -42.1689
rradius 59.7244
rwrist -35.0407
rhand -19.7884 -2.76752
rfingers 7.12502
rthumb 6.54409 -752.646
lclavicle 6.36111e-015 2.38542e-014
lhumerus -54.3468 -1.57675 85.8638
lradius 77.7706
lwrist -34.7929
lhand -45.973 48.8682
lfingers 7.12502
lthumb -18.7197 437.988
rfemur -16.2772 -5.85155 38.0165
rtibia 22.5866
rfoot -25.7317 -21.7435
rtoes -9.62282
lfemur -31.1487 -6.30662 -8.69293
ltibia 74.5499
lfoot -8.00101 -7.58872
ltoes -37.9864
858
root 6.39506 15.5418 1.11053 355.679 -481.011 -711.764
lowerback 0.943813 2.6738 3.26852
upperback -10.4862 3.15668 -1.68095
thorax -11.4792 0.89615 -3.927
lowerneck 6.54071 4.43402 -1.32742
upperneck 4.74778 5.43469 9.4463
head 0.0494493 2.5735 3.13395
rclavicle 7.15625e-015 -8.74653e-015
rhumerus 39.2989 -5.09993 -40.4246
rradius 61.881
rwrist -37.7999
rhand -18.7273 -3.91732
rfingers 7.12502
rthumb 7.56841 -753.762
lclavicle 7.15625e-015 -8.74653e-015
lhumerus -54.9888 -1.32925 85.0441
lradius 78.6179
lwrist -33.4867
lhand -45.2096 49.7605
lfingers 7.12502
lthumb -17.9853 438.949
rfemur -15.4549 -4.41901 37.4797
rtibia 23.4113
rfoot -25.0802 -19.4848
rtoes -8.72963
lfemur -31.8474 -8.31194 -8.09596
ltibia 73.0958
lfoot -9.61631 -4.60151
ltoes -35.2132
859
root 6.2076 15.5487 1.06338 356.882 -485.807 -713.076
lowerback 1.10569 3.00777 3.45023
upperback -10.3925 3.61712 -1.67536
thorax -11.4169 1.10155 -4.07112
lowerneck 5.61239 5.44456 -1.04657
upperneck 5.21161 6.75522 9.63766
head 0.283547 3.27167 3.14137
rclavicle 9.93923e-015 4.77083e-015
rhumerus 40.0981 -4.28495 -39.1142
rradius 63.9936
rwrist -40.3066
rhand -17.8008 -5.03855
rfingers 7.12502
rthumb 8.46259 -754.849
lclavicle 9.93923e-015 4.77083e-015
lhumerus -55.7141 -0.539268 83.9036
lradius 79.4914
lwrist -32.295
lhand -44.5106 51.0787
lfingers 7.12502
lthumb -17.3126 440.328
rfemur -14.4423 -3.32053 36.993
rtibia 23.9059
rfoot -23.5558 -16.8341
rtoes -8.28368
lfemur -32.043 -9.95488 -7.16653
ltibia 71.0271
lfoot -11.401 -1.20962
ltoes -30.8636
860
root 6.02751 15.5752 1.01077 358.344 -491.039 -714.477
lowerback 1.11335 3.4191 3.39976
upperback -10.3546 4.14415 -1.71721
thorax -11.3266 1.35419 -4.13506
lowerneck 5.32247 6.31157 -0.646555
upperneck 4.86106 7.98373 9.33602
head 0.184075 3.89551 2.936
rclavicle 1.3736e-013 5.1684e-014
rhumerus 41.1475 -3.61424 -38.0103
rradius 66.1586
rwrist -42.7793
rhand -16.9028 -6.10112
rfingers 7.12502
rthumb 9.32909 -755.875
lclavicle 1.3736e-013 5.1684e-014
lhumerus -56.396 0.164315 82.5929
lradius 80.1894
lwrist -30.8945
lhand -43.8729 52.6962
lfingers 7.12502
lthumb -16.6989 441.998
rfemur -13.6698 -2.38481 36.2403
rtibia 24.2346
rfoot -21.2404 -13.6036
rtoes -8.0295
lfemur -32.0371 -11.2292 -6.26609
ltibia 68.4553
lfoot -13.4335 2.90903
ltoes -25.6309
861
root 5.85724 15.6047 0.958234 359.737 -496.643 -715.348
lowerback 0.931233 3.92002 3.52018
upperback -10.537 4.76972 -1.75028
thorax -11.3541 1.61847 -4.28625
lowerneck 5.30265 7.1541 -0.474314
upperneck 4.32324 9.18147 9.1961
head -0.0291914 4.48668 2.81249
rclavicle -5.56597e-015 2.14687e-014
rhumerus 42.2004 -2.91979 -36.763
rradius 68.3105
rwrist -45.3129
rhand -16.4882 -6.81181
rfingers 7.12502
rthumb 9.72916 -756.567
lclavicle -5.56597e-015 2.14687e-014
lhumerus -57.3336 0.56183 81.1912
lradius 80.8045
lwrist -29.1699
lhand -42.9937 54.8459
lfingers 7.12502
lthumb -15.8523 444.217
rfemur -13.4252 -1.75474 35.6581
rtibia 24.5594
rfoot -18.8622 -9.82354
rtoes -7.67821
lfemur -32.1211 -12.0954 -4.84282
ltibia 65.4982
lfoot -15.1149 5.92707
ltoes -18.507
862
root 5.68993 15.6432 0.911563 361.324 -502.333 -716.259
lowerback 0.616434 4.36922 3.55713
upperback -10.8205 5.28183 -1.8842
thorax -11.4235 1.8161 -4.47938
lowerneck 5.25965 8.06769 -0.610548
upperneck 3.76313 10.452 9.54149
head -0.292703 5.10437 2.89618
rclavicle -3.77691e-014 -3.4191e-014
rhumerus 43.4369 -2.2136 -35.5556
rradius 70.449
rwrist -47.8076
rhand -15.9222 -7.62637
rfingers 7.12502
rthumb 10.2752 -757.355
lclavicle -3.77691e-014 -3.4191e-014
lhumerus -58.5671 0.881655 79.6756
lradius 81.4967
lwrist -27.1118
lhand -42.224 57.7242
lfingers 7.12502
lthumb -15.111 447.153
rfemur -13.6056 -1.02674 34.7723
rtibia 24.9916
rfoot -16.6758 -6.20991
rtoes -6.70526
lfemur -32.1254 -13.1165 -3.39818
ltibia 62.1374
lfoot -16.7691 8.14724
ltoes -10.3309
863
root 5.52209 15.6876 0.868083 363.18 -508.218 -717.564
lowerback 0.196273 4.80314 3.18473
upperback -11.11 5.71275 -2.14503
thorax -11.4662 2.00001 -4.56364
lowerneck 5.22801 8.90761 -0.956586
upperneck 3.02087 11.6377 9.91322
head -0.6354 5.67186 3.01542
rclavicle -3.77691e-015 1.59028e-015
rhumerus 44.9845 -1.60755 -34.3966
rradius 72.5449
rwrist -50.4781
rhand -15.3401 -8.49384
rfingers 7.12502
rthumb 10.8367 -758.194
lclavicle -3.77691e-015 1.59028e-015
lhumerus -59.8876 1.19499 78.1985
lradius 82.0777
lwrist -24.7387
lhand -41.0274 61.5336
lfingers 7.12502
lthumb -13.9581 268.955
rfemur -14.1867 -0.334468 33.2484
rtibia 25.6089
rfoot -14.4898 -2.55118
rtoes -5.62392
lfemur -31.8429 -14.4116 -2.28324
ltibia 58.3534
lfoot -17.8033 8.71737
ltoes -1.90577
